<?xml version="1.0" encoding="iso-8859-1"?>
<!-- Uploaded to: SVG Repo, www.svgrepo.com, Generator: SVG Repo Mixer Tools -->
<svg height="800px" width="800px" version="1.1" id="Capa_1" xmlns="http://www.w3.org/2000/svg" xmlns:xlink="http://www.w3.org/1999/xlink" 
	 viewBox="0 0 58.231 58.231" xml:space="preserve">
<g>
	<g>
		<circle style="fill:#010002;" cx="37.245" cy="16.292" r="3.343"/>
		<path style="fill:#010002;" d="M49.811,18.763c-3.701,1.391-7.523,2.207-11.475,2.427c-0.039,0.001-0.072,0.012-0.111,0.017
			c-0.473-0.179-0.977-0.26-1.457-0.21c-0.42,0.043-0.795,0.16-1.13,0.329c-2.999-0.72-5.854-1.757-8.558-3.324
			c-2.056-1.193-3.907,1.987-1.855,3.176c2.728,1.583,5.622,2.707,8.643,3.497c0.008,1.958,0.021,3.914,0.03,5.873
			c-0.708,4.941-2.78,12.725-4.438,16.662c-0.493,1.168,0.06,2.519,1.229,3.012c0.292,0.122,0.594,0.184,0.893,0.184
			c0.896,0,1.752-0.531,2.121-1.41c1.237-2.94,2.502-7.237,3.449-11.215c0.78,3.495,1.006,6.897,0.732,10.664
			c-0.088,1.268,0.865,2.366,2.133,2.456c0.055,0.007,0.111,0.009,0.168,0.009c1.193,0,2.202-0.927,2.289-2.137
			c0.416-5.844-0.217-10.9-2.1-16.502c-0.015-2.521-0.026-5.041-0.041-7.561c3.576-0.355,7.078-1.128,10.457-2.398
			C52.987,21.483,52.038,17.926,49.811,18.763z"/>
		<path style="fill:#010002;" d="M19.809,14.965L7.655,17.269c0.182-1.334,1.167-2.47,2.538-2.789
			c-1.754,0.259-3.417-0.907-3.75-2.666c-0.341-1.803,0.844-3.543,2.649-3.886C9.18,7.91,9.269,7.899,9.358,7.891l-0.107-0.57
			C3.827,8.349,0.222,13.53,0.98,19.042l-0.532,0.102c-0.298,0.057-0.494,0.345-0.438,0.643c0.057,0.299,0.345,0.497,0.643,0.438
			l0.533-0.1c1.311,5.409,6.563,8.91,11.988,7.88l-0.081-0.417c-0.086,0.025-0.172,0.048-0.262,0.064
			c-1.804,0.342-3.544-0.843-3.885-2.647c-0.342-1.804,0.843-3.543,2.645-3.886c0.091-0.017,0.18-0.028,0.269-0.037l-0.03-0.166
			c-0.087,0.023-0.173,0.046-0.264,0.063c-1.802,0.343-3.544-0.843-3.885-2.646c-0.013-0.069-0.02-0.139-0.03-0.208l12.316-2.334
			c1.089-0.207,2.145,0.513,2.351,1.602c0.208,1.091-0.513,2.145-1.602,2.352l0.157,0.827c1.545-0.293,2.565-1.79,2.272-3.336
			C22.85,15.691,21.354,14.67,19.809,14.965z"/>
		<path style="fill:#010002;" d="M44.913,8.891c0.256-0.335,0.08-1.361,0.08-1.361s-1.035,0.104-1.289,0.438
			c-0.256,0.334-0.189,0.811,0.146,1.066C44.18,9.289,44.661,9.225,44.913,8.891z"/>
		<path style="fill:#010002;" d="M50.686,7.968c-0.253,0.334-0.189,0.811,0.146,1.066c0.334,0.254,0.812,0.19,1.064-0.143
			c0.255-0.335,0.078-1.361,0.078-1.361S50.942,7.634,50.686,7.968z"/>
		<path style="fill:#010002;" d="M48.133,13.478c0.256-0.334,0.078-1.36,0.078-1.36s-1.035,0.104-1.289,0.438
			c-0.256,0.333-0.189,0.812,0.144,1.065C47.401,13.877,47.879,13.813,48.133,13.478z"/>
		<path style="fill:#010002;" d="M58.092,10.55c0.256-0.334,0.08-1.359,0.08-1.359s-1.036,0.103-1.291,0.437
			c-0.254,0.333-0.188,0.811,0.146,1.066C57.36,10.948,57.838,10.884,58.092,10.55z"/>
		<path style="fill:#010002;" d="M35.733,8.891c0.256-0.335,0.079-1.361,0.079-1.361s-1.035,0.104-1.29,0.438
			s-0.189,0.811,0.145,1.066C35,9.289,35.478,9.225,35.733,8.891z"/>
		<path style="fill:#010002;" d="M29.14,11.38c0.254-0.335,0.079-1.361,0.079-1.361s-1.035,0.104-1.289,0.438
			c-0.255,0.334-0.19,0.811,0.145,1.066C28.409,11.777,28.885,11.713,29.14,11.38z"/>
		<path style="fill:#010002;" d="M56.881,15.07c-0.254,0.333-0.188,0.811,0.146,1.065c0.333,0.254,0.812,0.191,1.065-0.143
			c0.256-0.335,0.08-1.359,0.08-1.359S57.136,14.736,56.881,15.07z"/>
		<path style="fill:#010002;" d="M56.129,20.59c-0.254,0.333-0.19,0.811,0.146,1.065c0.334,0.255,0.812,0.191,1.065-0.144
			c0.255-0.334,0.078-1.359,0.078-1.359S56.383,20.255,56.129,20.59z"/>
		<path style="fill:#010002;" d="M52.192,15.07c-0.255,0.333-0.189,0.811,0.145,1.065c0.334,0.254,0.812,0.191,1.066-0.143
			c0.256-0.335,0.077-1.359,0.077-1.359S52.446,14.736,52.192,15.07z"/>
		<path style="fill:#010002;" d="M48.401,28.164c-0.253,0.336-0.189,0.813,0.145,1.067c0.334,0.253,0.812,0.188,1.067-0.146
			s0.078-1.36,0.078-1.36S48.656,27.83,48.401,28.164z"/>
		<path style="fill:#010002;" d="M44.913,17.455c0.256-0.335,0.08-1.361,0.08-1.361s-1.035,0.103-1.289,0.438
			c-0.256,0.333-0.189,0.812,0.146,1.066C44.18,17.853,44.661,17.788,44.913,17.455z"/>
	</g>
</g>
</svg>